<svg xmlns="http://www.w3.org/2000/svg" width="12.274" height="3.654" viewBox="0 0 12.274 3.654">
  <path id="Tracé_7" data-name="Tracé 7" d="M675.246,96.4a4.356,4.356,0,0,1-.112.877,1.548,1.548,0,0,1-.316.612.787.787,0,0,1-.632.265c-.177,0-.539.007-1.082.02s-1.184.027-1.925.041-1.5.031-2.285.051-1.512.037-2.192.051-1.439.027-2.282.041a1.91,1.91,0,0,1-.725-.122,1.117,1.117,0,0,1-.508-.469,1.964,1.964,0,0,1-.214-1.019,2.714,2.714,0,0,1,.234-1.3,1,1,0,0,1,.53-.5,1.165,1.165,0,0,1,.459-.071,6.023,6.023,0,0,0,.714.02q.63,0,1.59-.01t2.059-.031l2.17-.041q1.07-.02,1.917-.051c.564-.02.984-.037,1.256-.051a1,1,0,0,1,.856.275,1.6,1.6,0,0,1,.377.734A5.822,5.822,0,0,1,675.246,96.4Z" transform="translate(-662.973 -94.701)" fill="#161615"/>
</svg>
